<?xml version="1.0" encoding="UTF-8" standalone="no"?><!DOCTYPE svg PUBLIC "-//W3C//DTD SVG 1.1//EN" "http://www.w3.org/Graphics/SVG/1.1/DTD/svg11.dtd"><svg width="100%" height="100%" viewBox="0 0 100 100" version="1.1" xmlns="http://www.w3.org/2000/svg" xmlns:xlink="http://www.w3.org/1999/xlink" xml:space="preserve" xmlns:serif="http://www.serif.com/" style="fill-rule:evenodd;clip-rule:evenodd;stroke-linejoin:round;stroke-miterlimit:2;"><path d="M37.5,12.5l0,0Zm0,0l0,-8.333l25,-0l0,8.333l-25,0Zm25,0l12.5,0l0,12.5l-12.5,0l0,-12.5Z"/><path d="M45.833,70.833l0,-12.5l-16.667,0l0,-8.333l-12.5,0l0,-25l8.333,0l0,16.667l12.5,0l0,8.333l25,0l0,-8.333l12.5,0l0,-16.667l8.333,0l0,25l-12.5,0l0,8.333l-16.667,0l0,12.5"/><rect x="54.167" y="25" width="8.333" height="8.333" style="fill-opacity:0.65;fill-rule:nonzero;"/><rect x="25" y="12.5" width="12.5" height="12.5" style="fill-opacity:0.65;fill-rule:nonzero;"/><rect x="25" y="12.5" width="12.5" height="12.5" style="fill-opacity:0.65;fill-rule:nonzero;"/><rect x="25" y="12.5" width="12.5" height="12.5" style="fill-opacity:0.65;fill-rule:nonzero;"/><rect x="41.667" y="70.833" width="4.167" height="4.167" style="fill-opacity:0.65;fill-rule:nonzero;"/><rect x="37.5" y="75" width="4.167" height="4.167" style="fill-opacity:0.65;fill-rule:nonzero;"/><rect x="33.333" y="75" width="4.167" height="4.167" style="fill-opacity:0.65;fill-rule:nonzero;"/><rect x="37.5" y="75" width="4.167" height="4.167" style="fill-opacity:0.65;fill-rule:nonzero;"/><rect x="37.5" y="70.833" width="4.167" height="4.167" style="fill-opacity:0.65;fill-rule:nonzero;"/><rect x="41.667" y="70.833" width="4.167" height="4.167" style="fill-opacity:0.65;fill-rule:nonzero;"/><rect x="41.667" y="66.667" width="4.167" height="4.167" style="fill-opacity:0.65;fill-rule:nonzero;"/><rect x="37.5" y="70.833" width="4.167" height="4.167" style="fill-opacity:0.65;fill-rule:nonzero;"/><rect x="37.5" y="70.833" width="4.167" height="4.167" style="fill-opacity:0.65;fill-rule:nonzero;"/><rect x="37.5" y="66.667" width="4.167" height="4.167" style="fill-opacity:0.65;fill-rule:nonzero;"/><rect x="41.667" y="66.667" width="4.167" height="4.167" style="fill-opacity:0.65;fill-rule:nonzero;"/><rect x="54.167" y="70.833" width="4.167" height="4.167" style="fill-opacity:0.65;fill-rule:nonzero;"/><rect x="58.333" y="75" width="4.167" height="4.167" style="fill-opacity:0.65;fill-rule:nonzero;"/><rect x="58.333" y="75" width="4.167" height="4.167" style="fill-opacity:0.65;fill-rule:nonzero;"/><rect x="58.333" y="70.833" width="4.167" height="4.167" style="fill-opacity:0.65;fill-rule:nonzero;"/><rect x="54.167" y="70.833" width="4.167" height="4.167" style="fill-opacity:0.65;fill-rule:nonzero;"/><rect x="54.167" y="66.667" width="4.167" height="4.167" style="fill-opacity:0.65;fill-rule:nonzero;"/><rect x="58.333" y="70.833" width="4.167" height="4.167" style="fill-opacity:0.65;fill-rule:nonzero;"/><rect x="58.333" y="70.833" width="4.167" height="4.167" style="fill-opacity:0.65;fill-rule:nonzero;"/><rect x="58.333" y="66.667" width="4.167" height="4.167" style="fill-opacity:0.65;fill-rule:nonzero;"/><rect x="54.167" y="66.667" width="4.167" height="4.167" style="fill-opacity:0.65;fill-rule:nonzero;"/><rect x="41.667" y="75" width="4.167" height="4.167" style="fill-opacity:0.65;fill-rule:nonzero;"/><rect x="54.167" y="75" width="4.167" height="4.167" style="fill-opacity:0.65;fill-rule:nonzero;"/><rect x="62.5" y="75" width="4.167" height="4.167" style="fill-opacity:0.65;fill-rule:nonzero;"/><rect x="37.5" y="70.833" width="4.167" height="4.167" style="fill-opacity:0.65;fill-rule:nonzero;"/><rect x="37.5" y="70.833" width="4.167" height="4.167" style="fill-opacity:0.65;fill-rule:nonzero;"/></svg>